HIERARCHY
ROOT RootJoint
{
    OFFSET   0.000000   0.000000   0.000000
    CHANNELS 6 Xposition Yposition Zposition Xrotation Yrotation Zrotation
    JOINT pelvis_lowerback
    {
        OFFSET   0.000000   0.093605   0.000000
        CHANNELS 3 Xrotation Yrotation Zrotation
        JOINT lowerback_torso
        {
            OFFSET   0.000000   0.100000   0.000000
            CHANNELS 3 Xrotation Yrotation Zrotation
            JOINT torso_head
            {
                OFFSET   0.000000   0.282350   0.000000
                CHANNELS 3 Xrotation Yrotation Zrotation
                End Site
                {
                    OFFSET   0.000000   0.192650   0.000000
                }
            }
            JOINT rTorso_Clavicle
            {
                OFFSET  -0.001000   0.157500   0.000000
                CHANNELS 3 Xrotation Yrotation Zrotation
                JOINT rShoulder
                {
                    OFFSET  -0.117647   0.000000   0.000000
                    CHANNELS 3 Xrotation Yrotation Zrotation
                    JOINT rElbow
                    {
                        OFFSET  -0.245000   0.000000   0.000000
                        CHANNELS 3 Xrotation Yrotation Zrotation
                        JOINT rWrist
                        {
                            OFFSET  -0.240000   0.000000   0.000000
                            CHANNELS 3 Xrotation Yrotation Zrotation
                            End Site
                            {
                                OFFSET  -0.116353  -0.002500   0.000000
                            }
                        }
                    }
                }
            }
            JOINT lTorso_Clavicle
            {
                OFFSET   0.001000   0.157500   0.000000
                CHANNELS 3 Xrotation Yrotation Zrotation
                JOINT lShoulder
                {
                    OFFSET   0.117647   0.000000   0.000000
                    CHANNELS 3 Xrotation Yrotation Zrotation
                    JOINT lElbow
                    {
                        OFFSET   0.245000   0.000000   0.000000
                        CHANNELS 3 Xrotation Yrotation Zrotation
                        JOINT lWrist
                        {
                            OFFSET   0.240000   0.000000   0.000000
                            CHANNELS 3 Xrotation Yrotation Zrotation
                            End Site
                            {
                                OFFSET   0.116353  -0.002500   0.000000
                            }
                        }
                    }
                }
            }
        }
    }
    JOINT rHip
    {
        OFFSET  -0.100000  -0.051395   0.000000
        CHANNELS 3 Xrotation Yrotation Zrotation
        JOINT rKnee
        {
            OFFSET   0.000000  -0.410000   0.000000
            CHANNELS 3 Xrotation Yrotation Zrotation
            JOINT rAnkle
            {
                OFFSET   0.000000  -0.390000   0.000000
                CHANNELS 3 Xrotation Yrotation Zrotation
                JOINT rToeJoint
                {
                    OFFSET   0.000000  -0.050000   0.130000
                    CHANNELS 3 Xrotation Yrotation Zrotation
                    End Site
                    {
                        OFFSET  -0.010000   0.002000   0.060000
                    }
                }
            }
        }
    }
    JOINT lHip
    {
        OFFSET   0.100000  -0.051395   0.000000
        CHANNELS 3 Xrotation Yrotation Zrotation
        JOINT lKnee
        {
            OFFSET   0.000000  -0.410000   0.000000
            CHANNELS 3 Xrotation Yrotation Zrotation
            JOINT lAnkle
            {
                OFFSET   0.000000  -0.390000   0.000000
                CHANNELS 3 Xrotation Yrotation Zrotation
                JOINT lToeJoint
                {
                    OFFSET   0.000000  -0.050000   0.130000
                    CHANNELS 3 Xrotation Yrotation Zrotation
                    End Site
                    {
                        OFFSET   0.010000   0.002000   0.060000
                    }
                }
            }
        }
    }
}
MOTION
Frames: 8
Frame Time:   0.008333
 -3.752327   0.839315   3.004209   4.536906 -62.592621  -3.949936  14.046135   6.546815   0.475188   3.998783   4.094496   0.864159  -5.326443   0.282900  -1.353795  -2.452193  -0.613068   0.641042  -6.729595   2.477769  44.844036 179.919400  81.107799 -179.932747  -2.579872   4.097974  -9.949420  10.023530   5.488781  -3.740311  19.928262  -1.033627 -52.010212 -179.996041 -89.409261 -179.998485  -3.587998  -3.689590   7.263855  -0.088682  -8.509745  -2.381528  41.455247  -0.011340  -0.001221 -16.736569 -10.491699   1.885227 -34.936258  -0.054752  -0.054538 -44.318035   8.015126   6.389053  61.856788  -0.049672  -0.029914 -26.177879  12.798392   8.265960  -5.559539   0.010581   0.011472
 -3.766596   0.842309   3.014176   4.326804 -61.955412  -4.143128  13.826302   6.445066   0.272328   4.119848   4.222050   0.682963  -5.091489   0.147927  -1.202232  -2.431020  -0.712039   0.448874  -6.066886   2.414821  45.082536 179.955867  81.574536 -179.964920  -2.576261   5.066449 -10.184945  10.205470   5.517735  -3.682184  20.207609  -1.054037 -51.854568 -179.995888 -89.221056 -179.998921  -3.668593  -3.713239   7.531232   0.472487  -8.514022  -2.520509  42.448955  -0.004014   0.002112 -13.318036 -10.424529   2.366584 -36.006212  -0.046940  -0.052549 -43.958777   8.066294   5.809283  59.624313  -0.048095  -0.028263 -26.438793  12.831905   8.393381  -5.368394   0.009669   0.010346
 -3.781266   0.844974   3.024272   3.929450 -61.095594  -4.632021  13.594814   6.210164   0.169078   4.296935   4.228743   0.592569  -4.859110   0.024274  -1.053962  -2.258225  -0.901254   0.397971  -5.296823   2.286105  45.359049 179.988885  82.107059 -179.994908  -2.657685   5.526371 -10.185184  10.351411   5.503241  -3.697834  20.446555  -1.118542 -51.737932 179.996047 -89.040234 179.992490  -3.738724  -3.782158   7.680789   0.906286  -8.519292  -2.531235  43.761493   0.004972   0.007360  -9.757748 -10.318000   2.838501 -35.922943  -0.036820  -0.041655 -43.293799   8.096523   5.195556  57.616906  -0.048756  -0.029338 -26.681535  12.861969   8.513536  -5.199606   0.008735   0.009530
 -3.796241   0.847208   3.034398   3.563316 -60.074776  -5.167821  13.324869   5.887076   0.098355   4.460932   4.135274   0.557592  -4.644721  -0.091592  -0.913738  -2.010269  -1.157474   0.431792  -4.493090   2.121859  45.658515 -179.985050  82.634157 179.981247  -2.783618   5.720340 -10.079140  10.474923   5.468119  -3.732451  20.658440  -1.199871 -51.639962 179.989238 -88.865062 179.985249  -3.801477  -3.889207   7.754668   1.281678  -8.517189  -2.417758  45.166043   0.013928   0.013372  -6.151619 -10.120196   3.295492 -34.753079  -0.024434  -0.020713 -42.479304   8.154923   4.560189  55.811576  -0.050287  -0.032112 -26.905608  12.890350   8.624773  -5.044565   0.007846   0.008982
 -3.811363   0.848862   3.044454   3.289210 -58.992738  -5.628036  13.031704   5.523955  -0.004135   4.595413   3.982182   0.527797  -4.449972  -0.199828  -0.785294  -1.734202  -1.443801   0.502059  -3.698796   1.945976  45.961860 -179.965122  83.137414 179.963182  -2.926456   5.794372  -9.940652  10.577672   5.420416  -3.756839  20.845167  -1.285369 -51.544873 179.984392 -88.694626 179.980080  -3.856942  -4.032146   7.803715   1.582153  -8.508636  -2.166268  46.472157   0.020175   0.018841  -2.622796  -9.791873   3.724419 -31.514407  -0.007448   0.021500 -41.579039   8.246037   3.899068  54.181792  -0.051065  -0.034765 -27.112665  12.917255   8.727536  -4.902768   0.006988   0.008498
 -3.826554   0.849937   3.054548   3.121755 -57.875988  -6.017859  12.712255   5.138989  -0.098049   4.697979   3.791010   0.495475  -4.271999  -0.300980  -0.670044  -1.451845  -1.745528   0.581482  -2.932566   1.765401  46.250536 -179.950558  83.614617 179.950234  -3.073825   5.808986  -9.803193  10.664751   5.364271  -3.787599  21.011596  -1.374502 -51.458996 179.981717 -88.532423 179.977181  -3.906799  -4.192656   7.831360   1.842965  -8.506495  -1.884761  47.786995   0.025778   0.023173   0.671997  -9.539575   4.089371 -28.880214   0.010067   0.045252 -40.625799   8.342348   3.234007  52.702794  -0.051015  -0.036850 -27.304575  12.942806   8.823183  -4.773152   0.006177   0.008033
 -3.841727   0.850424   3.064594   3.043776 -56.783311  -6.338016  12.390598   4.759100  -0.210585   4.771853   3.586561   0.452499  -4.110690  -0.395054  -0.564449  -1.179480  -2.042264   0.659267  -2.208112   1.591108  46.522946 -179.940127  84.062366 179.941218  -3.219411   5.798953  -9.681371  10.736302   5.301580  -3.816213  21.158283  -1.464096 -51.378043 179.979921 -88.377733 179.975257  -3.952015  -4.367785   7.854898   2.021976  -8.509663  -1.536967  48.947724   0.028745   0.025684   3.746679  -9.214136   4.426365 -26.073807   0.025554   0.064713 -39.641076   8.441005   2.587152  51.355366  -0.049925  -0.037959 -27.482295  12.967114   8.912153  -4.653173   0.005423   0.007551
 -3.856130   0.850101   3.075212   2.525528 -55.936964  -6.880280  12.380804   4.571891  -0.246392   4.835057   3.488551   0.239096  -4.042053  -0.367442  -0.520008  -0.956511  -2.341886   0.859761  -1.262644   1.341140  46.701645 -179.859391  85.365360 179.862381  -3.170437   6.583708  -9.787551  10.500436   5.137135  -3.945774  20.785745  -1.780106 -51.222375 179.988706 -88.291839 179.984466  -3.996443  -4.183076   7.769762   1.636016  -8.510760  -1.655981  51.817282   0.041461   0.028948   3.958252  -9.603586   4.441092 -23.786152   0.043368   0.056173 -38.302611   8.177983   1.763821  50.780740  -0.041946  -0.031116 -28.217674  12.684634   9.601072  -4.396163   0.003890   0.006056
